<svg xmlns="http://www.w3.org/2000/svg" xmlns:xlink="http://www.w3.org/1999/xlink" version="1.1" x="0px" y="0px" viewBox="0 0 48 60" enable-background="new 0 0 48 48" xml:space="preserve"><g><path d="M37.442,18.621c-1.017,0-1.972,0.396-2.69,1.115c-0.72,0.719-1.116,1.675-1.116,2.69c0,1.017,0.396,1.973,1.116,2.692   c1.438,1.438,3.943,1.438,5.382,0c0.739-0.739,1.134-1.722,1.113-2.768c-0.019-0.987-0.414-1.916-1.113-2.615   C39.415,19.018,38.459,18.621,37.442,18.621z"/><path d="M0,16.103v15.795c0,2.742,2.23,4.973,4.973,4.973h23.846V11.13H4.973C2.23,11.13,0,13.36,0,16.103z"/><path d="M43.028,11.13H30.861v25.74h12.167c2.741,0,4.972-2.23,4.972-4.973V16.103C48,13.36,45.77,11.13,43.028,11.13z    M46.137,31.122c-0.199,0.199-0.461,0.299-0.722,0.299s-0.522-0.1-0.722-0.299l-3.908-3.908c-0.975,0.685-2.127,1.062-3.342,1.062   c-1.563,0-3.031-0.607-4.137-1.712c-1.104-1.105-1.713-2.574-1.713-4.137c0-1.562,0.608-3.03,1.713-4.135s2.574-1.713,4.136-1.713   s3.03,0.608,4.136,1.713c1.074,1.074,1.683,2.502,1.711,4.02c0.025,1.26-0.348,2.456-1.055,3.463l3.902,3.903   C46.536,30.077,46.536,30.724,46.137,31.122z"/></g><text x="0" y="63" fill="#000000" font-size="5px" font-weight="bold" font-family="'Helvetica Neue', Helvetica, Arial-Unicode, Arial, Sans-serif">Created by Creative Stall</text><text x="0" y="68" fill="#000000" font-size="5px" font-weight="bold" font-family="'Helvetica Neue', Helvetica, Arial-Unicode, Arial, Sans-serif">from the Noun Project</text></svg>